<svg width="164" height="24" viewBox="0 0 164 24" fill="none" xmlns="http://www.w3.org/2000/svg">
<path d="M3.3165 23V19.448H9.1725C10.2178 19.448 11.0285 19.128 11.6045 18.488C12.2018 17.848 12.5005 17.0907 12.5005 16.216C12.5005 15.6187 12.3725 15.0747 12.1165 14.584C11.8605 14.0933 11.4765 13.7093 10.9645 13.432C10.4738 13.1333 9.8765 12.984 9.1725 12.984H3.3165V9.464H8.6925C9.5885 9.464 10.3032 9.24 10.8365 8.792C11.3912 8.344 11.6685 7.672 11.6685 6.776C11.6685 5.85867 11.3912 5.176 10.8365 4.728C10.3032 4.28 9.5885 4.056 8.6925 4.056H3.3165V0.504H9.2045C10.6978 0.504 11.9458 0.781333 12.9485 1.336C13.9725 1.86933 14.7405 2.584 15.2525 3.48C15.7645 4.35467 16.0205 5.31467 16.0205 6.36C16.0205 7.64 15.6258 8.74933 14.8365 9.688C14.0685 10.6053 12.9378 11.288 11.4445 11.736L11.6365 10.328C13.3005 10.7973 14.5805 11.576 15.4765 12.664C16.3938 13.7307 16.8525 15.0213 16.8525 16.536C16.8525 17.7307 16.5538 18.8187 15.9565 19.8C15.3805 20.76 14.5272 21.5387 13.3965 22.136C12.2872 22.712 10.9325 23 9.3325 23H3.3165ZM0.1165 23V0.504H4.4365V23H0.1165ZM26.32 23.32C24.912 23.32 23.6427 22.968 22.512 22.264C21.3813 21.56 20.496 20.6 19.856 19.384C19.216 18.168 18.896 16.8027 18.896 15.288C18.896 13.752 19.216 12.376 19.856 11.16C20.496 9.944 21.3813 8.984 22.512 8.28C23.6427 7.576 24.912 7.224 26.32 7.224C27.4293 7.224 28.4213 7.448 29.296 7.896C30.1707 8.344 30.864 8.97333 31.376 9.784C31.9093 10.5733 32.1973 11.4693 32.24 12.472V18.04C32.1973 19.064 31.9093 19.9707 31.376 20.76C30.864 21.5493 30.1707 22.1787 29.296 22.648C28.4213 23.096 27.4293 23.32 26.32 23.32ZM27.088 19.448C28.2613 19.448 29.2107 19.064 29.936 18.296C30.6613 17.5067 31.024 16.4933 31.024 15.256C31.024 14.4453 30.8533 13.7307 30.512 13.112C30.192 12.472 29.7333 11.9813 29.136 11.64C28.56 11.2773 27.8773 11.096 27.088 11.096C26.32 11.096 25.6373 11.2773 25.04 11.64C24.464 11.9813 24.0053 12.472 23.664 13.112C23.344 13.7307 23.184 14.4453 23.184 15.256C23.184 16.088 23.344 16.824 23.664 17.464C24.0053 18.0827 24.464 18.5733 25.04 18.936C25.6373 19.2773 26.32 19.448 27.088 19.448ZM30.8 23V18.84L31.472 15.064L30.8 11.352V7.544H34.96V23H30.8ZM45.2605 23.32C43.8952 23.32 42.6792 23.032 41.6125 22.456C40.5672 21.88 39.7458 21.08 39.1485 20.056C38.5512 19.032 38.2525 17.848 38.2525 16.504V7.544H42.4765V16.408C42.4765 17.048 42.5832 17.6027 42.7965 18.072C43.0098 18.52 43.3298 18.8613 43.7565 19.096C44.1832 19.3307 44.6845 19.448 45.2605 19.448C46.1352 19.448 46.8178 19.1813 47.3085 18.648C47.7992 18.1147 48.0445 17.368 48.0445 16.408V7.544H52.2365V16.504C52.2365 17.8693 51.9378 19.064 51.3405 20.088C50.7645 21.112 49.9432 21.912 48.8765 22.488C47.8312 23.0427 46.6258 23.32 45.2605 23.32ZM55.5748 23V7.544H59.7668V23H55.5748ZM65.6548 23V13.88C65.6548 12.984 65.3668 12.2907 64.7908 11.8C64.2361 11.288 63.5428 11.032 62.7108 11.032C62.1561 11.032 61.6548 11.1493 61.2068 11.384C60.7588 11.5973 60.4068 11.9173 60.1508 12.344C59.8948 12.7707 59.7668 13.2827 59.7668 13.88L58.1348 13.08C58.1348 11.8853 58.3908 10.8507 58.9028 9.976C59.4361 9.10133 60.1508 8.42933 61.0468 7.96C61.9428 7.46933 62.9561 7.224 64.0868 7.224C65.1534 7.224 66.1241 7.46933 66.9988 7.96C67.8734 8.42933 68.5668 9.10133 69.0788 9.976C69.5908 10.8293 69.8468 11.864 69.8468 13.08V23H65.6548ZM75.7348 23V13.88C75.7348 12.984 75.4468 12.2907 74.8708 11.8C74.3161 11.288 73.6228 11.032 72.7908 11.032C72.2574 11.032 71.7561 11.1493 71.2868 11.384C70.8388 11.5973 70.4868 11.9173 70.2308 12.344C69.9748 12.7707 69.8468 13.2827 69.8468 13.88L67.4468 13.304C67.5321 12.0667 67.8628 11 68.4388 10.104C69.0148 9.18667 69.7721 8.48267 70.7108 7.992C71.6494 7.48 72.6948 7.224 73.8468 7.224C74.9988 7.224 76.0334 7.46933 76.9508 7.96C77.8681 8.42933 78.5934 9.112 79.1268 10.008C79.6601 10.904 79.9268 11.9707 79.9268 13.208V23H75.7348ZM90.7168 23.32C89.0954 23.32 87.6554 22.9787 86.3968 22.296C85.1381 21.592 84.1354 20.632 83.3888 19.416C82.6634 18.2 82.3008 16.8133 82.3008 15.256C82.3008 13.72 82.6528 12.3547 83.3568 11.16C84.0821 9.944 85.0634 8.984 86.3008 8.28C87.5381 7.55467 88.9141 7.192 90.4288 7.192C91.9221 7.192 93.2341 7.53333 94.3648 8.216C95.5168 8.87733 96.4128 9.79467 97.0528 10.968C97.7141 12.12 98.0448 13.432 98.0448 14.904C98.0448 15.1813 98.0234 15.4693 97.9808 15.768C97.9594 16.0453 97.9061 16.3653 97.8208 16.728L84.8288 16.76V13.624L95.8688 13.592L94.1728 14.904C94.1301 13.9867 93.9594 13.2187 93.6608 12.6C93.3834 11.9813 92.9674 11.512 92.4128 11.192C91.8794 10.8507 91.2181 10.68 90.4288 10.68C89.5968 10.68 88.8714 10.872 88.2528 11.256C87.6341 11.6187 87.1541 12.1413 86.8128 12.824C86.4928 13.4853 86.3328 14.2747 86.3328 15.192C86.3328 16.1307 86.5034 16.952 86.8448 17.656C87.2074 18.3387 87.7194 18.872 88.3808 19.256C89.0421 19.6187 89.8101 19.8 90.6848 19.8C91.4741 19.8 92.1888 19.672 92.8288 19.416C93.4688 19.1387 94.0234 18.7333 94.4928 18.2L96.9568 20.664C96.2101 21.5387 95.2928 22.2 94.2048 22.648C93.1381 23.096 91.9754 23.32 90.7168 23.32ZM100.637 23V7.544H104.861V23H100.637ZM102.749 5.048C102.067 5.048 101.501 4.824 101.053 4.376C100.605 3.90667 100.381 3.33067 100.381 2.648C100.381 1.98667 100.605 1.42133 101.053 0.952C101.501 0.482666 102.067 0.247999 102.749 0.247999C103.453 0.247999 104.019 0.482666 104.445 0.952C104.893 1.42133 105.117 1.98667 105.117 2.648C105.117 3.33067 104.893 3.90667 104.445 4.376C104.019 4.824 103.453 5.048 102.749 5.048ZM113.887 23.352C113.012 23.352 112.148 23.2347 111.295 23C110.463 22.7653 109.695 22.4453 108.991 22.04C108.287 21.6133 107.679 21.1013 107.167 20.504L109.663 17.976C110.196 18.5733 110.815 19.0213 111.519 19.32C112.223 19.6187 113.001 19.768 113.855 19.768C114.537 19.768 115.049 19.672 115.391 19.48C115.753 19.288 115.935 19 115.935 18.616C115.935 18.1893 115.743 17.8587 115.359 17.624C114.996 17.3893 114.516 17.1973 113.919 17.048C113.321 16.8773 112.692 16.696 112.031 16.504C111.391 16.2907 110.772 16.024 110.175 15.704C109.577 15.3627 109.087 14.904 108.703 14.328C108.34 13.7307 108.159 12.9627 108.159 12.024C108.159 11.0427 108.393 10.1893 108.863 9.464C109.353 8.73867 110.047 8.17333 110.943 7.768C111.839 7.36267 112.895 7.16 114.111 7.16C115.391 7.16 116.543 7.384 117.567 7.832C118.612 8.28 119.476 8.952 120.159 9.848L117.631 12.376C117.161 11.8 116.628 11.384 116.031 11.128C115.455 10.872 114.825 10.744 114.143 10.744C113.524 10.744 113.044 10.84 112.703 11.032C112.383 11.224 112.223 11.4907 112.223 11.832C112.223 12.216 112.404 12.5147 112.767 12.728C113.151 12.9413 113.641 13.1333 114.239 13.304C114.836 13.4533 115.455 13.6347 116.095 13.848C116.756 14.04 117.375 14.3173 117.951 14.68C118.548 15.0427 119.028 15.5227 119.391 16.12C119.775 16.7173 119.967 17.4853 119.967 18.424C119.967 19.9387 119.423 21.144 118.335 22.04C117.247 22.9147 115.764 23.352 113.887 23.352ZM125.066 23V1.112H129.258V23H125.066ZM121.45 11.224V7.544H132.874V11.224H121.45ZM142.248 23.32C140.627 23.32 139.187 22.9787 137.928 22.296C136.669 21.592 135.667 20.632 134.92 19.416C134.195 18.2 133.832 16.8133 133.832 15.256C133.832 13.72 134.184 12.3547 134.888 11.16C135.613 9.944 136.595 8.984 137.832 8.28C139.069 7.55467 140.445 7.192 141.96 7.192C143.453 7.192 144.765 7.53333 145.896 8.216C147.048 8.87733 147.944 9.79467 148.584 10.968C149.245 12.12 149.576 13.432 149.576 14.904C149.576 15.1813 149.555 15.4693 149.512 15.768C149.491 16.0453 149.437 16.3653 149.352 16.728L136.36 16.76V13.624L147.4 13.592L145.704 14.904C145.661 13.9867 145.491 13.2187 145.192 12.6C144.915 11.9813 144.499 11.512 143.944 11.192C143.411 10.8507 142.749 10.68 141.96 10.68C141.128 10.68 140.403 10.872 139.784 11.256C139.165 11.6187 138.685 12.1413 138.344 12.824C138.024 13.4853 137.864 14.2747 137.864 15.192C137.864 16.1307 138.035 16.952 138.376 17.656C138.739 18.3387 139.251 18.872 139.912 19.256C140.573 19.6187 141.341 19.8 142.216 19.8C143.005 19.8 143.72 19.672 144.36 19.416C145 19.1387 145.555 18.7333 146.024 18.2L148.488 20.664C147.741 21.5387 146.824 22.2 145.736 22.648C144.669 23.096 143.507 23.32 142.248 23.32ZM152.169 23V7.544H156.361V23H152.169ZM156.361 14.456L154.729 13.368C154.921 11.4693 155.475 9.976 156.393 8.888C157.31 7.77867 158.633 7.224 160.361 7.224C161.107 7.224 161.779 7.352 162.377 7.608C162.974 7.84267 163.518 8.23733 164.009 8.792L161.385 11.8C161.15 11.544 160.862 11.352 160.521 11.224C160.201 11.096 159.827 11.032 159.401 11.032C158.505 11.032 157.769 11.32 157.193 11.896C156.638 12.4507 156.361 13.304 156.361 14.456Z" fill="black"/>
</svg>
